<?xml version="1.0" encoding="UTF-8"?> <svg xmlns="http://www.w3.org/2000/svg" xmlns:xlink="http://www.w3.org/1999/xlink" version="1.1" id="Layer_1" x="0px" y="0px" viewBox="0 0 1000 1000" style="enable-background:new 0 0 1000 1000;" xml:space="preserve"> <g style="display:none;"> <path style="display:inline;fill:#513535;" d="M1453.4,315.4c8.3-0.2,16.6,0,24.9,0c0,0,0,0,0-0.1c8.8,0,17.6,0.2,26.4-0.1 c5.1-0.1,9.3-1.7,9.9-7.9c0.6-6.4-2.3-9.9-8.3-11.3c-1.7-0.4-3.5-0.6-5.2-0.6c-15.8-0.1-31.7-0.1-47.5-0.1c-6.9,0-9,3.5-8.8,10 C1444.9,311.5,1446.1,315.6,1453.4,315.4z"></path> <path style="display:inline;fill:#513535;" d="M1770.3,113.4c0.3,3.4,4.4,8.3,7.5,9c2.9,0.6,6.7-3.8,12.8-7.7 c-5.8-4.3-9.1-8.6-12.4-8.6C1775.4,106,1770,111,1770.3,113.4z"></path> <path style="display:inline;fill:#513535;" d="M1617.2,163.6c0-8.4,0.4-15.7-0.1-23c-0.5-6.3-4.6-10.7-11-9.7 c-4.1,0.6-10.4,3.9-10.9,6.8c-1.5,8.5-0.5,17.3-0.5,25.9C1602.6,163.6,1609.3,163.6,1617.2,163.6z"></path> <path style="display:inline;fill:#513535;" d="M1897.7,131.1h-43.1c0.4-7.4,0.5-14.3,0.5-20.3V93.6c0-11.2-9.5-20.2-21.2-20.2h-459 c-11.7,0-21.2,9.1-21.2,20.2v17.2c0,6.1,0.2,12.9,0.6,20.3h-43.1c-54.1,0-98,42-98,93.6v4.5c0,150.9,116.3,277,269.8,298.4 c4.8,5.6,9.7,10.9,14.7,15.9c30.9,30.5,48.6,71,48.6,113.4v1.9c0,30.7-16.4,59.5-43.8,75.6c-27.4,16-47.3,42.5-53.6,73.7h-26.3 c-16.8,0-30.4,13-30.4,29V962h-32.4c-5.6,0-10.2,4.4-10.2,9.8v27.9c0,5.4,4.6,9.8,10.2,9.8h489.1c5.6,0,10.2-4.4,10.2-9.8v-27.9 c0-5.4-4.6-9.8-10.2-9.8h-32.4V837c0-16-13.6-29-30.4-29h-26.3c-6.3-31.1-26.2-57.6-53.6-73.7c-27.4-16-43.8-44.9-43.8-75.6l0,0 c0-43,18.2-84,49.8-114.7c5.5-5.3,10.7-10.9,15.8-16.9c152.3-22.4,267.4-147.9,267.4-298.1v-4.5 C1995.7,173.1,1951.7,131.1,1897.7,131.1z M1762,99.4c11.9,0,23.5,0,35.1,0c0,49.8,0,99.5,0,149.3c-11.4,0-22.8,0-35.1,0 C1762,198.7,1762,149.3,1762,99.4z M1803.6,267.3c0,3.5,0,7,0,10.5c-1.9,0.4-3.8,1.2-5.7,1.2c-19.7,0.2-39.3-0.3-59,0.5 c-16.5,0.7-32.9,2.9-49.9,4.5c0-4.8,0-10.2,0-16.7C1727.2,267.3,1765.4,267.3,1803.6,267.3z M1668.1,99c6.2,0.4,12.4,0.5,18.6,0 c6.8-0.6,8.2,2.4,8.2,8.5c-0.3,32.9-0.1,65.7-0.1,98.6c0,3.3,0,6.6,0,10.4c14.9,1.3,18-1.3,18.1-14.2c0.1-30.7,0.1-61.4,0.1-92.1 c0-3.3,0-6.6,0-10.5c12.6,0,24.2,0,36.6,0c0.2,2.8,0.6,5.5,0.6,8.2c0,33.5-0.6,67,0.2,100.4c0.6,25.5-14.4,39.4-37.6,40.5 c-15.1,0.7-30.3,0.5-45.4,1c-6,0.2-7.2-2.5-7.2-7.7c0.1-45.1,0.2-90.3,0-135.4C1659.9,100.3,1662.2,98.6,1668.1,99z M1560.2,138.6 c0.1-7,0.9-14.2,3-20.8c3.9-12.8,11.9-18.4,25.3-18.9c9.6-0.4,19.2-0.2,28.8-0.2c22.8,0,33.2,10,33.5,33 c0.3,25.2,0.1,50.3,0.1,75.5c0,13.8,0,27.6,0,42c-10.9,0-21,0-32.8,0c0-17.4,0-34.4,0-52c-8.1,0-15.1,0-23.5,0 c0,14.1-0.5,28.4,0.2,42.7c0.4,8.3-2.3,10.3-10.4,10.2c-24.2-0.4-24.2,0-24.2-24.1C1560.1,196.9,1559.9,167.8,1560.2,138.6z M1604.5,266.9c20.2,0,40.4,0.2,60.5-0.1c5.4-0.1,7.3,1.5,6.8,6.7c-0.4,4.6-0.1,9.3-0.1,13.5c-28.1,7.8-55.6,11.7-83.8,10.1 c-11.1-0.6-10.9,0-11.8,10.6c-0.2,2.3-2.2,5.5-4.2,6.4c-8.9,3.9-18.1,7.2-28.5,11.2c0-9.3,0-17.8,0-26.4c0-6.7-0.1-13.4,0-20.2 c0.1-8.6,3-11.7,11.9-11.8C1571.7,266.8,1588.1,266.9,1604.5,266.9z M1414.5,374.8c0.3-3.4,0.8-6.9,0.8-10.3 c0.1-20.8,0.1-41.6,0-62.4c0-8.1-0.5-16.3-0.8-24.4c0-3,0-6,0-9c2.6-0.7,5.2-1.9,7.8-1.9c31.5-0.1,63-0.1,94.4,0 c9.4,0,10.2,1,10.2,10.4c0,16.9,0,33.8-0.1,50.7c0,6.5-10,12.7-16.1,10.5c-3.9-1.4-8.1-2.8-12.2-2.9c-14.8-0.3-29.7-0.2-44.6,0 c-8.3,0.1-9,1.4-9.2,12.3c-0.1,6.5,1.9,9.7,9.1,9.3c7.9-0.5,15.8-0.1,24.2,1.5c-12.1,8.9-24.2,17.8-36.3,26.7c-9.1,0-18.2,0-27.3,0 C1414.5,381.8,1414.5,378.3,1414.5,374.8z M1265.5,229.1v-4.5c0-24.1,20.5-43.7,45.7-43.7h47.6c10.1,82.5,36.1,198.4,83.5,285.9 C1338.9,432.6,1265.5,338.7,1265.5,229.1z M1525,385.3c-17.2,0-34.3,0-51.5,0c4.5-3.8,8.6-8.1,13.4-11.3c10.3-7,21-13.6,31.6-20.2 c2.2-1.4,4.8-2.2,9.4-4.3C1526.9,362.6,1525.9,374,1525,385.3z M1516.7,249.9c0-11.7,0-22,0-32.4c0-24,0-47.9,0-71.9 c0-13.7-0.1-13.7-15.2-12.5c0,3.1,0,6.4,0,9.6c0,31.9-0.4,63.9,0.3,95.8c0.2,9.8-3.1,12.5-12.1,11.4c-4.6-0.6-9.3-0.6-13.9,0 c-8.7,1.1-11.7-1.8-11.5-10.9c0.6-31,0.2-62,0.2-93.1c0-13.7-1.2-14.7-16.2-12.3c0,3.1,0,6.3,0,9.6c0,32.6-0.2,65.1,0.1,97.7 c0.1,6.8-1.8,9.4-8.8,9c-8-0.5-16-0.1-24.9-0.1c0-50.4,0-100.1,0-149.5c18.6,0,37,0.1,55.4-0.1c3.2,0,6.4-1.3,9.6-1.3 c15.2-0.1,30.4-0.3,45.5,0.2c14.1,0.5,24.3,9.9,26.8,23.5c0.9,4.8,1.5,9.7,1.6,14.6c0.1,34.7-0.1,69.4,0.2,104.1 c0,6.3-1.7,8.9-8.4,8.6C1536,249.6,1526.8,249.9,1516.7,249.9z M1671.6,376.7c-0.5,3-2.8,5.8-4.3,8.6c-37.9,0-75.7,0-113.6,0 c-7.7-3.2-10.8-9.1-10.4-17.2c0.2-4.5,0.7-9.1-0.1-13.4c-1.9-10.8,2.9-16.2,12.9-19.7c11.1-3.9,21.5-9.7,32.7-13.4 c8.2-2.7,17-4.3,25.6-4.6c18.3-0.7,36.7-0.2,54.6-0.2c0.8,1.1,1.3,1.5,1.3,1.9c1.4,16,1.4,16-14.6,16c-23.7,0-47.4,0-71.2,0 c-9.2,0-9.8,0.6-9.8,9.8c0,3.5,0,6.9,0,10.9c2.6,0.2,4.8,0.5,7,0.5c27.5,0,55,0.2,82.5-0.2c6.2-0.1,8.1,1.7,7.6,7.6 C1671.5,367.7,1672.4,372.3,1671.6,376.7z M1756.9,297.4c-6.1-0.1-7.7,1.6-7.7,7.4c0.2,26.8,0,53.6-0.1,80.4c-9.6,0-19.2,0-28.8,0 c-0.5-2.8-1.5-5.7-1.5-8.5c-0.1-24.1-0.3-48.2,0.1-72.2c0.1-6.5-2.1-8.1-8.2-7.7c-7.3,0.5-14.7,0.1-22,0.1 c-0.1-0.9-0.2-1.8-0.3-2.7c3.6-0.8,7.2-1.7,10.9-2.4c32.5-5.6,65.3-7.8,98.3-7.7c2,0,3.9,0.6,5.9,0.9c0,4,0,8,0,12 C1788,297.3,1772.4,297.8,1756.9,297.4z M1943.4,229.1c0,108.7-72.2,201.9-174.3,236.9c46.8-87.4,71.6-202.8,81.2-285h47.3 c25.2,0,45.7,19.6,45.7,43.7L1943.4,229.1L1943.4,229.1z"></path> </g> <g style="display:none;"> <radialGradient id="SVGID_1_" cx="585.3616" cy="601.8687" r="50.2211" gradientTransform="matrix(1 0 0 1 0 7.874)" gradientUnits="userSpaceOnUse"> <stop offset="0" style="stop-color:#FFFFFF"></stop> <stop offset="5.423248e-03" style="stop-color:#FCFCFC"></stop> <stop offset="0.1256" style="stop-color:#C2C2C2"></stop> <stop offset="0.2488" style="stop-color:#8E8E8E"></stop> <stop offset="0.3723" style="stop-color:#636363"></stop> <stop offset="0.496" style="stop-color:#3F3F3F"></stop> <stop offset="0.6202" style="stop-color:#232323"></stop> <stop offset="0.745" style="stop-color:#101010"></stop> <stop offset="0.871" style="stop-color:#040404"></stop> <stop offset="1" style="stop-color:#000000"></stop> </radialGradient> <path style="display:inline;fill:url(#SVGID_1_);" d="M676.4,811.3c2.6-9.4-16.8-26-44.4-37.6c-25-10.5-48.3-13.3-56.1-7.4 c-4.3-1.1-8.4-1.9-12.2-2.4c1-0.2,2-0.5,3-0.7c0-0.5,0-1.2,0-1.9c0-0.1,0-0.2,0-0.3s0-0.3,0-0.4c-0.2-1.9-0.9-4.4-3.6-6.9 c-8.9-8.3-17.9-22.9-17.6-38.6c0.2-12.3,4.3-24.5,7.5-36.3c0.8-0.5,1.1-1.1,1.1-1.6c0-0.3-0.2-0.5-0.4-0.8c1.1-2.2,4.6-4.4,4.7-6.6 c0.2-2.5-1.3-4.8-3.6-6.9c-0.2-0.2-0.5-0.4-0.7-0.6c-0.3-0.2-0.6-0.5-0.9-0.7c-0.2-0.2-0.4-0.3-0.7-0.5c-7.7-5.8-20.1-11-20.1-18.8 c0-8.3,9-14.3,19-18.9c0.6-0.3,1.3-0.6,1.9-0.9c0.6-0.3,1.2-0.5,1.8-0.8c9.6-4,19.3-7,22.6-9.6c1.1-0.8,2.7-2.4-0.6-4.7 c-2.5-0.2-4.9-0.2-7.3-0.2c-0.6,0-1.2,0-1.8-0.1c-0.3,0-0.7,0-1,0c0,0.9-0.8,1.6-1.3,2.1c-3.3,2.7-13,5.8-22.6,10 c-0.6,0.3-1.2,0.5-1.8,0.8s-1.3,0.6-1.9,0.9c-10.1,4.8-19,11-19,19.6c0,8.1,12.3,13.5,20,19.4c-3.6-0.6-7.7-1-12.3-1.4 c-4-5.8-9.8-11.2-9.8-19.1c0-8.8,4.6-15.2,9.8-20.1c0.3-0.3,0.7-0.6,1-0.9c0.3-0.3,0.6-0.5,0.9-0.8c4.9-4.3,10-7.4,11.6-10.2 c0.1-0.2,0.3-0.4,0.4-0.7c-5.4,0-10.8,0-16.2-0.1c-10.6-0.2-21.4-0.1-31.9-0.2c-10.5,0-20.9,0.1-31.3,0.3c-2.4,0-4.9,0-7.4,0.1 c0.1,0.2,0.1,0.4,0.3,0.6c2,2.6,7,5.5,11.8,9.6c0.3,0.3,0.6,0.5,0.9,0.8s0.6,0.6,1,0.9c2.4,2.2,4.6,4.8,6.3,7.9 c-2.9-2.1-6.4-4-9.9-5.7c-0.6-0.3-1.3-0.6-1.9-0.9c-0.6-0.3-1.2-0.5-1.8-0.8c-9.6-4.2-19.3-7.3-22.6-10c-0.6-0.5-1.3-1.2-1.3-2.1 c-0.3,0-0.7,0-1,0c-0.6,0-1.2,0-1.8,0.1c-2.4,0-4.8,0-7.3,0.2c-3.3,2.3-1.7,3.9-0.6,4.7c3.3,2.6,13,5.6,22.6,9.6 c0.6,0.3,1.2,0.5,1.8,0.8c0.6,0.3,1.3,0.6,1.9,0.9c10.1,4.6,19,10.6,19,18.9c0,7.6-11.9,12.8-19.6,18.4c-6.2,1.2-9.8,2.7-9.8,4.3 c0,1,1.3,1.9,3.6,2.7c-0.2,0.7-0.3,1.4-0.2,2.1c0.1,1.7,2.3,3.4,3.7,5.1c-4.6,1.2-7.2,2.5-7.1,3.9c0.1,1.6,3.8,3,10,4.2 c3,10.5,6.2,21.3,6.4,32.1c0.3,15.6-8.8,30.2-17.6,38.6c-0.3,0.3-0.7,0.6-0.9,1c-23.7,2.1-41.2,9.2-41.2,17.6 c0,1.8,0.8,3.5,2.2,5.1c-3.5,1.2-7.2,2.5-10.8,4C362.9,793,343,810,346.8,819.3c2.6,6.4,15.5,7.5,32.5,3.9 c14.4,7.3,55,12.6,102.8,12.8c43.5,0.2,81-4,98.3-10.2c0,0.3-0.1,0.7-0.1,1c0.4,10.1,25.5,17.4,56.2,16.3 c30.7-1.1,55.2-10.1,54.9-20.2C690.9,818.3,685.3,814.2,676.4,811.3z M530.9,671.3L530.9,671.3c6.1-0.7,11.3-1.5,15.2-2.4 c0,0.1,0,0.1,0,0.2c-0.1,1.3-1.2,2.6-2.4,3.8C540.2,672.3,535.9,671.8,530.9,671.3z M470.8,655.6c-0.7,1-1.5,2-2.2,3 c-0.9,0.1-1.7,0.2-2.6,0.2C467.5,657.7,469.1,656.7,470.8,655.6z M458.9,670.4c2.1,0.3,4.3,0.6,6.7,0.8c0.2,0.3,0.3,0.7,0.5,1 c-1.9,0.2-3.6,0.4-5.3,0.7C460.1,672,459.4,671.2,458.9,670.4z M468.7,684.9c0.6,6.3,1.1,12.7,1.5,18.9c-1.1-6.4-2.9-12.8-4.6-19.2 C466.6,684.7,467.6,684.8,468.7,684.9z M470.7,725.3c-0.6,11-3.1,20.1-7.2,28.9c-2.4-0.1-5-0.2-7.5-0.2 C462.5,747,468.6,736.7,470.7,725.3z M481.9,799.6c-18.5-0.1-35.8,0.7-51.1,2c5.7-3.8,10.3-7.7,13.6-11.3c3.5,0.2,7,0.3,10.7,0.3 c30.7,0,55.5-8.2,55.5-18.3c0-1.5-0.6-3-1.6-4.4c4.7,0,9.5,0,14.4-0.1c4.2,0,8.4-0.2,12.5-0.3c0-0.5,0-1,0-1.6c0-0.1,0-0.2,0-0.3 s0-0.3,0-0.5c-0.1-2-0.5-4.6-1.9-7.3c-4.6-8.8-9.3-24.4-9.1-41c0.1-11.1,1.6-22,3.1-32.8c4.3-0.4,8.2-0.9,11.7-1.5 c-3,11-6.2,22.3-6.4,33.6c-0.3,16.2,8.8,31.4,17.6,40.1c2.6,2.6,3.4,5,3.6,7c-7.9,0-13.4,1.9-15,5.8c-3.9,9.3,15.9,26.5,44.2,38.3 c4.9,2.1,9.8,3.8,14.4,5.3c-3.2,1.1-6,2.2-8.4,3.5C583.6,807,537.6,799.8,481.9,799.6z"></path> <radialGradient id="SVGID_00000083772338186421408690000002527464205118024080_" cx="815.774" cy="172.492" r="75.0275" gradientTransform="matrix(1 0 0 1 0 7.874)" gradientUnits="userSpaceOnUse"> <stop offset="0" style="stop-color:#FFFFFF"></stop> <stop offset="5.423248e-03" style="stop-color:#FCFCFC"></stop> <stop offset="0.1256" style="stop-color:#C2C2C2"></stop> <stop offset="0.2488" style="stop-color:#8E8E8E"></stop> <stop offset="0.3723" style="stop-color:#636363"></stop> <stop offset="0.496" style="stop-color:#3F3F3F"></stop> <stop offset="0.6202" style="stop-color:#232323"></stop> <stop offset="0.745" style="stop-color:#101010"></stop> <stop offset="0.871" style="stop-color:#040404"></stop> <stop offset="1" style="stop-color:#000000"></stop> </radialGradient> <path style="display:inline;fill:url(#SVGID_00000083772338186421408690000002527464205118024080_);" d="M868.9,192.9 c-15.6-15.4-36.5-17.7-47.6-17.7c-2.4,0-4.7,0.1-7,0.3c-7.6,0.7-15.5,3.4-23.6,8l-0.5,0.3c-4.3,2.6-11.2,7.9-16.8,14.1 c-4.6,5.1-7.8,10.2-9.2,14.7l-0.2,0.7c-0.9,2.8-3.2,10.1-3.5,17.9c-0.2,7.2,0.8,19.8,7.4,35.6c-3.3-13.2-3-23.9-2.4-30.1 c0.8-7.5,3.8-13.7,5.3-16.7c0.2-0.4,0.3-0.7,0.4-0.9c2.6-6,6.5-11.5,11.7-16.1c6-5.3,12.2-8.3,14.9-9.6l0.3-0.1 c5.4-2.5,10.5-4.2,14.6-4.7c1.5-0.2,3.8-0.4,6.7-0.4c8.8,0,25.7,2,39.5,15c2.4,2.3,57.6,56.6-22.2,159.8 c-10,12.9-43.1,48.4-79.1,83.2c-23.2,22.5-46.5,43.2-61.9,56.7l-0.9,0.7c-13,11.1-24.2,22.4-33.4,33.5c-5.5,6.7-10,13-13.6,19.1 c4.3-6.5,9.8-13.6,16.5-21.1c12.4-14,25.7-26,32.5-31.9l0.2-0.2c17.5-15.3,40-35.6,61.6-55.7c41-38,71.1-67.9,80.6-79.8 C927.3,256.5,875.1,199,868.9,192.9z"></path> <radialGradient id="SVGID_00000139276788027100516550000015034990344327853729_" cx="277.9701" cy="172.492" r="75.0275" gradientTransform="matrix(1 0 0 1 0 7.874)" gradientUnits="userSpaceOnUse"> <stop offset="0" style="stop-color:#FFFFFF"></stop> <stop offset="5.423248e-03" style="stop-color:#FCFCFC"></stop> <stop offset="0.1256" style="stop-color:#C2C2C2"></stop> <stop offset="0.2488" style="stop-color:#8E8E8E"></stop> <stop offset="0.3723" style="stop-color:#636363"></stop> <stop offset="0.496" style="stop-color:#3F3F3F"></stop> <stop offset="0.6202" style="stop-color:#232323"></stop> <stop offset="0.745" style="stop-color:#101010"></stop> <stop offset="0.871" style="stop-color:#040404"></stop> <stop offset="1" style="stop-color:#000000"></stop> </radialGradient> <path style="display:inline;fill:url(#SVGID_00000139276788027100516550000015034990344327853729_);" d="M338.5,537.1 c-9.2-11.1-20.4-22.4-33.4-33.5l-0.9-0.7c-15.4-13.5-38.7-34.2-61.9-56.7c-36-34.8-69.1-70.3-79.1-83.2 C83.4,259.8,138.6,205.4,141,203.2c13.8-13.1,30.7-15,39.5-15c2.9,0,5.3,0.2,6.7,0.4c4,0.5,9.2,2.1,14.6,4.7l0.3,0.1 c2.7,1.3,9,4.3,14.9,9.6c5.2,4.6,9.1,10,11.7,16.1c0.1,0.2,0.2,0.5,0.4,0.9c1.4,3,4.5,9.2,5.3,16.7c0.7,6.2,0.9,16.9-2.4,30.1 c6.7-15.8,7.6-28.4,7.4-35.6c-0.2-7.8-2.6-15.1-3.5-17.9l-0.2-0.7c-1.4-4.5-4.6-9.5-9.2-14.7c-5.6-6.2-12.5-11.5-16.8-14.1 l-0.5-0.3c-8.1-4.7-16-7.4-23.6-8c-2.3-0.2-4.6-0.3-7-0.3c-11.1,0-32,2.3-47.6,17.7c-6.2,6.2-58.4,63.6,29.6,174.6 c9.5,12,39.6,41.8,80.6,79.8c21.6,20.1,44.1,40.3,61.6,55.7l0.2,0.2c6.8,5.9,20.1,18,32.5,31.9c6.7,7.5,12.2,14.6,16.5,21.1 C348.5,550.1,344,543.8,338.5,537.1z"></path> </g> <path style="fill:#FAD105;" d="M724.9,199.2c0.8-14.6,1.2-29.3,1.4-44.2h19.9v-45.9H238V155h19.5c0.2,14.9,0.6,29.6,1.4,44.2h-88.5 V292c0,109.2,70.9,201.8,169,234.6c27,49.7,59.2,86.4,94.7,105.7v46.1h29.8c-9.7,85.6-65.9,152-134.2,154.6h-4.2v34h332.7v-34h-4.1 c-68.3-2.6-124.6-68.9-134.3-154.6h29.9v-46.1c35.5-19.3,67.7-56,94.6-105.6c98.4-32.6,169.4-125.3,169.4-234.7v-92.9H724.9z M210.6,292.1v-52.6h51c7.8,87.2,26,166.4,51.9,231.4C252,435,210.6,368.2,210.6,292.1z M670.2,471.1c25.9-65,44.1-144.2,51.9-231.6 h51.2v52.6h0.1C773.4,368.4,731.9,435.2,670.2,471.1z"></path> <path style="fill:#0F4D00;" d="M326.6,345.4c4-3.1,7.8-6.4,11.9-9.4c1.1-0.8,2.8-1.4,4-1.2c5.8,1.1,10.6-1.2,12-7 c1.9-8.1,3.1-16.2,4.3-24.3c2.4-15.2,4.5-30.4,6.9-45.7c0.2-1.4,1.7-3.4,2.7-3.5c9.5-0.7,18.1-3.3,25.2-10.4 c-1.3,8-2.5,15.9-3.7,23.9c-2.2,14.5-4.3,29.1-6.8,43.6c-1.7,10-2.2,20.7-9.3,28.7c-4.3,4.8-9.2,8.9-16.5,10.3 c-8.8,1.9-17.5-0.8-26.2,0.9c-1.2,0.3-3-2.3-4.5-3.5C326.6,347.1,326.6,346.3,326.6,345.4z"></path> <path style="fill:#0F4D00;" d="M502.6,286.3c-0.8,20.5-9.9,39.3-32,49.5c-15.3,7-31.5,7.5-47.4,1.5c-15.5-5.9-23.1-18.1-24.4-33.8 c-2-24.9,11-49,36.2-58.2c15.3-5.6,31.2-5.5,46.1,1.4C496.2,253.7,502.4,266.8,502.6,286.3z M432,297.1c0.3,0.1,0.8,0.3,1.1,0.3 c-0.3,6,0.4,11.9,5.3,16.2c7,6.1,19.2,2.8,24.2-6.6c4.2-7.7,5.6-16.1,5.2-24.8c-0.3-5.4-2.1-10.4-7.4-13.4c-7.5-4.2-18-0.7-22.2,8.5 C435.4,283.5,434,290.5,432,297.1z"></path> <path style="fill:#0F4D00;" d="M611.5,241.7c8.6,0.2,17,1.6,24.8,5.4c12.5,6.2,18.7,16.9,20.3,30c2.8,23.2-8.7,48.5-31.5,58.7 c-10.3,4.6-21.1,5.8-32.4,4.7c-6.7-0.6-12.8-2.1-18.8-5.1c-11.2-5.4-17.5-14.6-19.8-26.2c-4.9-24.4,6.6-48.9,28.4-61 C591.5,243.3,601.4,241.8,611.5,241.7z M623.3,286.4c-0.3-0.1-0.7-0.2-1-0.3c0.3-6.7-0.6-13.1-6.8-17c-7.4-4.8-18.7-0.7-23.3,8.6 c-3.7,7.5-5.3,15.6-4.8,24c0.8,12.9,12.6,19.2,23.1,12.4c2.9-2,5.9-4.9,7.1-8.1C620,299.7,621.5,293,623.3,286.4z"></path> <path style="fill:#0F4D00;" d="M547.9,244.4c-1.1,7.5-2,15.1-3.3,22.6c-3,18.7-6.1,37.3-9.2,56c-2.4,14.3-9.8,24.8-24.2,28.6 c-6.7,1.8-14,1.2-21,1.1c-2.9,0-5.9-1.2-8.6-2.2c-1.1-0.4-2.2-1.7-2.5-2.8c-0.2-0.8,1.1-2,2-2.6c4.1-3.2,8.1-6.4,12.4-9.3 c0.9-0.7,2.5-1,3.7-0.8c5.3,1.1,9.8-0.8,11.3-6c1.9-6.9,3.1-13.9,4.2-20.9c2-12.5,3.7-25.2,5.6-37.8c0.6-4,1.7-8,1.9-12 c0.2-3.3,1.6-4.1,4.4-4.1C533.3,253.7,540.9,250.6,547.9,244.4z"></path> <path style="fill:#0F4D00;" d="M368.2,240.6c2.1-11.8,1.1-10.9,12.9-10.9c3,0,5.9-0.1,8.8,0.2c2.7,0.3,3.4,2.1,2,4.2 C388.9,237.9,374.2,243.7,368.2,240.6z"></path> <path style="fill:#0F4D00;" d="M536.8,230.1c2.5-0.1,5-0.3,7.5-0.3c0.9,0,2.5,0.6,2.6,1.2c0.3,0.8-0.3,2.3-1,2.9 c-5.9,5-12.6,7.5-20.3,7.3c-0.5,0-1.4-0.3-1.4-0.6c-0.2-2.5-0.5-5.3-0.1-7.7c0.3-1.2,2.1-2.6,3.5-2.8c3.1-0.4,6.1-0.2,9.2-0.2 C536.8,230,536.8,230,536.8,230.1z"></path> <path style="fill:#0F4D00;" d="M453.3,463.5c-0.6-1.8-1.9-3.7-1.6-5.3c2.3-15.2,4.8-30.4,7.2-45.5c2.2-14.5,4.3-29,6.3-43.6 c0.4-3.4,1.9-4.4,5.2-4.4c22.1,0.1,44.3,0.1,66.3,0c3.8,0,5.6,1.5,5.2,5.3c-0.5,4.8-1.2,9.7-1.8,14.5c-0.4,3.8-2.5,5-6.4,4.9 c-13.5-0.3-27-0.3-40.5-0.3c-6.2,0-6.7,0.6-7,6.6c-0.1,1.8,0,3.6,0,6.3c6.1,0,12.1,0,18.1,0c7,0,7.3,0.4,6.1,7.1 c-0.9,5.3-1.8,10.8-2.9,16.8c-3.1,0-6.4,0-9.8,0c-4,0-7.9,0.2-11.9,0c-3.7-0.3-4.8,1.4-5.1,4.9c-0.8,9.1-1.5,8.3,7.8,8.3 c10.7,0,21.5,0,32.1-0.1c3,0,5.9,0,9.8,0c-0.9,7.5-1.6,14.3-2.8,21.2c-0.2,1-2.3,1.8-3.6,2.5c-1,0.5-2.2,0.6-3.3,0.9 C498.5,463.5,475.9,463.5,453.3,463.5z"></path> <path style="fill:#0F4D00;" d="M632.6,371.9c-0.8,3.9-2,7.7-2.5,11.6c-0.6,3.6-2,5.8-6.3,5.5c-5.5-0.3-11-0.1-16.4-0.1 c-2.9,0-4.2,1.3-4.6,4.2c-1.7,12.5-3.5,24.9-5.3,37.3c-1.5,10.3-3.2,20.6-4.8,31c-3.7,0.4-7.3,1-10.9,1.1c-3.7,0.1-7.5-0.3-11-0.6 c-2.2-9.1-0.4-17.6,0.8-25.9c2-14.2,4.2-28.5,6.6-42.6c0.6-3.6-0.8-4.3-3.6-4.3c-6.6,0-13.2,0-20,0c-1.8-7.8,0.6-14.9,2.4-22 c0.3-0.9,2.7-2,4.2-2c22.4-0.2,44.8-0.2,67.2-0.1c1.4,0,3,1.2,4.4,1.9C632.6,368.5,632.6,370.2,632.6,371.9z"></path> <path style="fill:#0F4D00;" d="M343.5,462.1c3.1-3.6,5.5-6.2,7.7-9c2.9-3.6,5.9-7.3,8.3-11.3c1.4-2.2,2.7-2.7,5-2.7 c15.8,0.1,31.5,0.2,47.3-0.1c2.6-0.1,5.8-1.3,7.8-3.1c3.8-3.2,2.2-8.6-2.7-9.8c-1.4-0.4-3.1-0.4-4.6-0.4c-13.4,0-26.8,0-40.1,0 c-1.5,0-3.1,0-5.2,0c0.4-2.7,0.8-4.8,0.9-7c0.4-3.9,0.7-7.8,1-11.7c0.3-3.7,2-5.3,6-5.2c11.5,0.3,23.1,0.2,34.7,0.1 c2.6,0,5.3-0.2,8-0.8c3.8-0.8,5.8-3.5,5.4-7.3c-0.3-3.9-3.1-4.8-6.6-4.9c-14.3-0.1-28.7-0.3-43.1-0.1c-3.6,0-5.7-1.3-7.2-4.4 c-2.5-4.9-5.3-9.7-8-14.5c-0.7-1.2-1.1-2.5-1.6-3.7c1.4-0.5,2.8-1.4,4.2-1.4c14.8-0.1,29.6-0.1,44.3-0.1c7.3,0,14.7,0.2,22,0.2 c10.9,0,21.3,7,22.6,19.3c0.8,7.4-6.4,19.8-14.2,23.6c-1.4,0.7-2.7,1.4-4.7,2.5c2.3,1.4,3.9,2.5,5.7,3.4c9.6,4.9,11.1,11.2,10,21.2 c-1.8,15.5-16.2,26.3-30.7,26.8c-22.4,0.7-44.8,0.7-67.1,0.9C347.2,462.6,345.8,462.4,343.5,462.1z"></path> </svg> 