<?xml version="1.0" encoding="UTF-8"?> <svg xmlns="http://www.w3.org/2000/svg" xmlns:xlink="http://www.w3.org/1999/xlink" version="1.1" id="Layer_1" x="0px" y="0px" viewBox="0 0 5000 5000" style="enable-background:new 0 0 5000 5000;" xml:space="preserve"> <path style="fill:#FFCE00;" d="M2529.3,736.5h1406.1c128.3,0,232.4,104.1,232.4,232.4V2375H2529.4L2529.3,736.5L2529.3,736.5 L2529.3,736.5z"></path> <path style="fill:#FFCE00;" d="M716.2,2375V968.9c0-128.3,104.1-232.4,232.4-232.4h1406.1v1638.4L716.2,2375L716.2,2375L716.2,2375z "></path> <path style="fill:#FFCE00;" d="M716.3,2549.5h1638.4v1638.4H948.6c-128.3,0-232.4-104.1-232.4-232.4V2549.4l0,0L716.3,2549.5z"></path> <path style="fill:#FFCE00;" d="M2529.3,2549.5h1638.4v1406.1c0,128.3-104.1,232.4-232.4,232.4H2529.2V2549.6l0,0L2529.3,2549.5z"></path> </svg> 