<?xml version="1.0" encoding="UTF-8"?> <svg xmlns="http://www.w3.org/2000/svg" xmlns:xlink="http://www.w3.org/1999/xlink" version="1.1" id="Layer_1" x="0px" y="0px" viewBox="0 0 500 500" style="enable-background:new 0 0 500 500;" xml:space="preserve"> <g> <g> <path style="fill:#FFCE00;" d="M337.5,130.3c-3.6,0-6.5,2.2-8.6,5c-10.1-2.2-25.9-3.6-33-4.3c-5,0-14.4,0-23,0 c-2.9-2.9-6.5-4.3-11.5-5.7c0-0.7,0-1.4-0.7-2.2c3.6-2.9,5.7-7.2,5.7-12.2c0-9.3-7.2-16.5-16.5-16.5s-16.5,7.2-16.5,16.5 c0,5,2.2,9.3,5.7,12.9c0,0.7,0,1.4,0,2.2c-4.3,1.4-8.6,3.6-11.5,5.7c-8.6,0-18,0-23,0c-7.2,0.7-22.3,2.2-33,3.6 c-1.4-2.9-5-5-8.6-5c-5,0-9.3,4.3-9.3,9.3s4.3,9.3,9.3,9.3c3.6,0,6.5-2.2,8.6-5c10.8,1.4,26.6,2.9,33,3.6c5,0,14.4,0,23,0 c1.4,1.4,4.3,2.9,6.5,4.3c-2.2,13.6-4.3,27.3-5,35.2c-1.4,19.4,0,76.9,0,76.9h12.2h16.5H270c0,0,1.4-58.2,0-76.9 c-0.7-7.9-2.9-21.6-5-35.2c2.9-1.4,5-2.9,6.5-4.3c8.6,0,18,0,23,0c7.2-0.7,22.3-2.2,33-3.6c1.4,2.9,5,5,8.6,5c5,0,9.3-4.3,9.3-9.3 C347.5,134.7,343.2,130.3,337.5,130.3z"></path> </g> <g> <path style="fill:#FFCE00;" d="M396.4,330.8c-38.8,18-90.5,27.3-145.8,27.3c-54.6,0-106.3-10.1-145.8-27.3 c-28-12.9-47.4-28.7-56.8-46.7c0,12.2,0,24.4,0,29.5c0,51,90.5,92.7,202.6,92.7c111.3,0,202.6-41.7,202.6-92.7v-29.5 C443.8,302,424.4,317.8,396.4,330.8z"></path> </g> <g> <path style="fill:#FFCE00;" d="M400,281.2c-2.2-5.7-5.7-10.1-10.8-12.9c-0.7,0-0.7-0.7-1.4-0.7c-1.4-0.7-2.9-0.7-4.3-1.4 c-1.4,0-2.9-0.7-4.3-0.7c-12.2,0-23,10.1-23,23c0,2.9,0.7,5,1.4,7.2c0,0.7,0.7,2.2,1.4,2.9c0,0,0,0.7,0.7,0.7 c3.6,7.2,11.5,11.5,19.4,11.5c5,0,9.3-1.4,12.9-4.3c5.7-4.3,10.1-10.8,10.1-18.7C401.4,286.2,400.7,284.1,400,281.2z M386.3,305.6 c-2.2,0.7-4.3,1.4-7.2,1.4c-6.5,0-12.2-3.6-15.8-9.3c0-0.7-0.7-0.7-0.7-1.4c-0.7-0.7-0.7-2.2-1.4-2.9c-0.7-0.7-0.7-2.9-0.7-4.3 c0-10.1,7.9-18,18-18c0.7,0,2.2,0,2.9,0c1.4,0,2.9,0.7,4.3,1.4c0.7,0,0.7,0.7,1.4,0.7c2.9,1.4,5.7,4.3,7.2,7.9 c1.4,2.2,2.2,5,2.2,8.6C397.1,296.3,392.8,302.7,386.3,305.6z"></path> </g> <g> <path style="fill:#FFCE00;" d="M275.7,169.1c1.4,7.9,2.2,14.4,2.2,18c0,2.9,0.7,7.2,0.7,11.5c5,0.7,10.1,0.7,15.1,1.4 c13.6,2.2,26.6,5,38.1,8.6s22.3,8.6,30.2,13.6c8.6,5,15.1,10.8,19.4,17.2c4.3,5.7,6.5,12.9,6.5,19.4c0,2.9-0.7,5-1.4,7.9 c0.7,0,0.7,0.7,1.4,0.7c0.7-2.9,1.4-5,1.4-7.9h40.9c0,7.9-2.9,15.8-8.6,23.7l-23-3.6c0.7,2.2,1.4,5,1.4,7.9 c0,7.9-3.6,14.4-10.1,18.7l4.3,1.4c-10.8,6.5-23,12.2-37.4,17.2l-24.4-15.1c9.3-2.9,17.2-7.2,25.1-10.8c0,0,0-0.7-0.7-0.7 c-5.7,5-15.1,9.3-25.1,12.2c-11.5,3.6-24.4,7.2-38.1,8.6c-13.6,2.2-28,2.9-42.4,2.9l0,0c-15.1,0-29.5-1.4-42.4-2.9 c-13.6-2.2-26.6-5-38.1-8.6s-22.3-8.6-30.2-13.6c-8.6-5-15.1-11.5-19.4-17.2c-4.3-5.7-6.5-12.9-6.5-19.4c0-6.5,2.2-12.9,6.5-19.4 c4.3-6.5,11.5-12.2,19.4-17.2c8.6-5,18.7-10.1,30.2-13.6c11.5-3.6,24.4-7.2,38.1-8.6c5-0.7,10.1-1.4,15.1-1.4v-0.7 c-5,0.7-9.3,0.7-14.4,1.4l-12.9-18c9.3-1.4,18.7-2.2,28-2.9c0.7-2.9,0.7-6.5,1.4-10.1c-99.9,4.3-178.2,43.1-178.2,90.5 c0,51,90.5,91.9,202.6,91.9c111.3,0,202.6-40.9,202.6-91.9C453.1,213,375.5,174.2,275.7,169.1z M331.7,208.6 c-10.8-3.6-23-6.5-35.9-8.6l12.9-18c16.5,2.9,33,6.5,47.4,10.8L331.7,208.6z M382.7,239.5c-4.3-5.7-10.8-11.5-18.7-16.5l33-10.8 c10.1,6.5,18.7,13.6,24.4,21.6L382.7,239.5z M142.8,194.3l24.4,15.1c-10.8,3.6-20.1,7.9-28.7,12.9l-33-10.8 C116.2,205,129.1,199.3,142.8,194.3z M78.1,235.2l38.8,5.7c-4.3,5.7-6.5,12.2-6.5,18H69.5C70.2,251,73.1,243.1,78.1,235.2z M118.4,280.5c4.3,5.7,10.8,11.5,18.7,16.5l-33,10.8c-10.1-6.5-18.7-13.6-24.4-21.6L118.4,280.5z M193.1,337.9 c-16.5-2.9-33-6.5-47.4-10.8l24.4-15.1c10.8,3.6,23,6.5,35.9,8.6L193.1,337.9z M252.7,342.3v-18.7c13.6,0,26.6-0.7,39.5-2.9 l12.9,18C287.9,340.8,270.7,342.3,252.7,342.3z"></path> </g> </g> </svg> 