<?xml version="1.0" encoding="UTF-8"?> <svg xmlns="http://www.w3.org/2000/svg" xmlns:xlink="http://www.w3.org/1999/xlink" version="1.1" id="Layer_1" x="0px" y="0px" viewBox="0 0 1000 1000" style="enable-background:new 0 0 1000 1000;" xml:space="preserve"> <g> <path style="fill:#FFC200;" d="M779,533.5c-3.9-0.3-8.3,0.8-12.1,2.3c-24.6,9.1-50,15.2-76.4,15.9c-41.7,1.3-81.5-7.2-117.9-27.4 C494.4,480.8,451.4,414,445.7,324.6c-3.1-49.5,10-95.7,37-137.3c8-12.4,17.6-23.8,26.6-35.6c0.6,0.3,1.1,0.6,1.5,0.8 c0.1,1.8,0.3,3.8,0.4,5.6c0.7,8.9,7.3,15.2,15.8,15.2c8.3,0,15.2-6.2,15.5-14.8c0.4-15.6,0.4-31.2,0-46.9 c-0.1-7.9-6.3-14.2-14.2-14.4c-15.8-0.4-31.7-0.4-47.4,0c-8.3,0.3-14.6,7.9-14.5,15.9c0.1,8.4,6.9,15.1,15.5,15.5 c2,0.1,3.8,0,6.9,0c-2.4,2.7-3.8,4.2-5.2,5.8c-26.8,29.7-46.1,63.1-57.7,100.3c0,0-17,45.2-11.9,109.3H107.4 c-33.2,0-60.3,27.1-60.3,60.3V685c0,33.2,27.1,60.3,60.3,60.3h14.7c3,0,5.8,1.3,7.9,3.3c2.1,2.2,3.2,5,3.2,8l-2.4,84.1l40-31.6 c0,0,0.1,0,0.1-0.1l78-61.5c2-1.5,4.4-2.3,6.9-2.3h258.1c33.2,0,60.3-27.1,60.3-60.3V558.1c7.4,2.5,14.7,4.7,22.1,6.6V685 c0,45.4-37,82.4-82.4,82.4H259.7l-69.1,54.5c8.9,23,31.1,38.6,56.3,38.6H505c2.5,0,4.9,0.8,6.8,2.3l118.1,93.1l-2.4-84.1 c-0.1-3,1-5.9,3.2-8c2.1-2.2,4.9-3.3,7.9-3.3h14.7c33.2,0,60.3-27.1,60.3-60.3V575.4c30.7-1.4,51-5.4,51-5.4 c5.9-2,11.8-4.2,17.7-6.5c7.2-3,10.7-9.3,9.9-16.9C791.3,540,786,534.1,779,533.5z M187.5,579.7c-18.6,0-33.7-15-33.7-33.7 c0-18.6,15-33.7,33.7-33.7c18.6,0,33.7,15,33.7,33.7S206,579.7,187.5,579.7z M310.4,579.7c-18.6,0-33.7-15-33.7-33.7 c0-18.5,15-33.7,33.7-33.7c18.6,0,33.7,15,33.7,33.7S329,579.7,310.4,579.7z M433.3,579.7c-18.6,0-33.7-15-33.7-33.7 c0-18.5,15-33.7,33.7-33.7s33.7,15,33.7,33.7S452,579.7,433.3,579.7z"></path> <path style="fill:#FFC200;" d="M884.3,499.2c-1.8,0-3.5,0-5.8,0c0.7-1.3,0.8-1.5,1-1.8c1-1.1,2.1-2.4,3.1-3.5 c60.4-68.8,82.5-148.2,63.9-238C924.9,151.2,835.7,66.1,730.2,48.3c-10-1.7-20.1-2.8-30.1-4.2c-10.6,0-21.1,0-31.7,0 c-5.5,0.7-11.1,1.4-16.6,2.1c-23.4,3-46,9.1-68,18c-7,2.8-10.4,9.6-9.4,17c1,6.8,6.6,12.7,13.9,12.9c3.7,0.1,7.6-1,11.1-2.4 c41.2-15.8,83.4-20.1,127.2-12.2C834.3,99,916.8,193.6,921,302.9c2,49.7-10.1,95.7-37.2,137.3c-8,12.4-17.7,23.8-26.6,35.7 c-0.6-0.3-1.1-0.6-1.5-0.8c-0.1-2-0.3-4.1-0.4-6.1c-0.8-8.6-7.3-14.6-15.6-14.6s-15.3,6.1-15.6,14.8c-0.4,15.6-0.4,31.2,0,46.9 c0.1,7.9,6.3,14.2,14.1,14.5c15.8,0.4,31.7,0.4,47.4,0c8.6-0.3,14.9-8.2,14.5-16.3C899.8,505.8,893,499.5,884.3,499.2z"></path> <path style="fill:#FFC200;" d="M726.4,328.8c14.5-12.9,22.2-29.1,21.4-48.8c-1-25.3-22.7-45.5-48.4-45 c-25.2,0.4-46.3,21.7-46.3,46.6c0,9,6.5,16,15.1,16.5c8.6,0.4,15.6-6.1,16.5-15.1c1-10.8,8.3-17.6,17.7-16.5 c9.9,1.3,15.5,10.4,13.5,21.2c-1.8,9.7-8.2,16-15.3,22c-9.1,7.5-18.6,14.4-27.3,22.2c-12.5,11.3-19.4,25.6-20,42.6 c-0.4,11.7,6.1,18.3,17.9,18.3c19.7,0,39.3,0,59,0c10.7,0,17.9-6.5,17.9-15.8c0-9.4-7.2-15.8-17.9-15.8c-13.1,0-26.3,0-39.4,0 c-0.4-0.6-0.8-1.3-1.3-1.8c3.4-3,6.8-6.1,10.3-8.9C708.4,343.3,717.7,336.4,726.4,328.8z"></path> <path style="fill:#FFC200;" d="M842.6,329.9c0,15.9-0.1,31.2,0,46.7c0.1,9.3,6.9,16.3,15.8,16.3s15.5-6.9,15.8-16.3 c0-0.7,0-1.4,0-2.1c0-40.4,0-80.6,0-121c0-11.3-6.1-18.4-15.6-18.6c-9.7-0.1-15.9,7.2-15.9,18.7c0,13.1,0,26.3,0,39.4 c0,1.5-0.1,3.1-0.3,4.8c-10.4,0-20.5,0-31.4,0c0-15.8,0-31,0-46.3c0-9.7-6.8-16.7-15.8-16.7s-15.8,7-15.8,16.9 c0,20.4,0,40.7,0,61.1c0,10.3,6.6,16.7,16.7,16.9c13.6,0.1,27.3,0,41.1,0C839,329.6,840.6,329.8,842.6,329.9z"></path> <path style="fill:#FFC200;" d="M480.7,250.8c0.1,9.3,7.3,15.6,18,15.6c13.4,0,26.6,0,40.5,0c-0.6,2.5-1,4.2-1.4,5.9 c-8.3,33.1-16.6,66.3-24.8,99.3c-2.5,10,2,18.2,11.1,20.7c8.7,2.4,17-3.1,19.6-12.9c10.3-41.1,20.5-82.2,30.8-123.4 c3.1-12.4-3.9-21.1-16.7-21.1c-19.6-0.1-39.3-0.1-59-0.1C487.7,234.8,480.5,241.3,480.7,250.8z"></path> <path style="fill:#FFC200;" d="M611.3,374.5c1.5-13.1,3.2-26,4.8-39.1c3.4-27.6,6.9-55.3,10.1-81.5c0.7-10.6-5.1-18-13.5-19.1 s-15.9,4.6-17.4,13.8c-1,5.9-1.5,11.8-2.4,17.7c-4.4,35-8.9,70.2-13.1,105.4c-1.4,12.1,3.8,20,13.5,21 C603.1,393.8,609.9,386.8,611.3,374.5z"></path> </g> </svg> 